<?xml version="1.0" encoding="UTF-8"?>
<svg xmlns="http://www.w3.org/2000/svg" version="1.0" viewBox="0 0 768 768"><path d="M358.9 155.4c-.2.2-3.2.7-6.7 1-10.4 1.1-28.9 5.1-38.2 8.3-2.5.8-4.9 1.6-5.5 1.7-1.1.3-2.5.8-11 4.1-16.6 6.4-34.7 16.3-49.2 26.9l-8.3 6v224.7l10.8-.3 10.7-.3.5-106.2.5-106.1 2.5-2c10.1-7.7 34.3-19.6 52.5-25.7 33.5-11.2 75.8-13.1 111.1-4.9 59.2 13.7 110.9 54.6 138.3 109.4 3.2 6.3 6 12.4 6.4 13.5.3 1.1 1.6 4.5 2.7 7.5 3.8 10 8 26.3 10.1 39 2.7 16.4 2.9 44.4.4 61-4.5 30.4-15.8 60.3-32.2 84.7l-6.3 9.6.2 17 .3 17.1 3.7-4c19.1-20.2 37.5-51.5 47.2-80.4 4.4-12.9 5.8-18.8 9.2-36.5 2.1-10.7 3-47.8 1.5-61.4-7.5-68.9-46.3-131.1-105.1-168.5-29-18.5-58.5-29.2-93.4-34.1-9.8-1.3-51.5-2.2-52.7-1.1"/><path d="M208.3 233.7c-47.1 53.8-65.9 125.8-51.4 197.8 5 25.2 18.2 56.5 33.3 79 8.2 12.2 8.4 12.5 18.4 23.9C245.5 576.6 293.8 603 349 611c17.1 2.5 46.4 2.7 63 .4 38.2-5.2 75.8-20.3 104.8-42l7.2-5.5-.2-132.7-.3-132.7-12.5-.3-12.6-.3-3.5 6.3c-2 3.5-6.2 10.8-9.4 16.3-10.3 17.6-27.6 47.8-30.2 52.7-4.2 7.8-4.4 7.7-10-2-2.7-4.8-9.2-15.9-14.3-24.7s-10.3-17.8-11.5-20c-1.3-2.2-5.5-9.4-9.3-16l-7-12-12.1-.3c-6.7-.1-12.1 0-12.1.3 0 .5 19.8 35.3 33 58 2.9 4.9 12.2 21.1 20.8 36 17.8 30.9 17.5 30.5 18.2 30.5.5 0 4.4-6.7 21.9-37.5 5.4-9.4 12-20.8 14.7-25.5 2.8-4.7 6.6-11.2 8.4-14.5s3.9-6.9 4.6-8c1.2-1.7 1.4 14.8 1.2 106.5l-.3 108.5-6.9 4.6c-22.7 15.2-53.1 26.7-83.1 31.4-14.8 2.4-43.9 2.4-59 .1-69.9-10.7-127.2-52.9-157.6-116.1-13.4-27.7-19.9-56.8-19.9-88.5 0-40.5 10.8-77.3 33-112.1l7-10.9.1-16.6c0-9.1-.1-16.8-.4-17-.2-.3-3.1 2.6-6.4 6.3"/><path d="M378 404.5V470h22v-94.1l-2.5-4.7c-1.4-2.6-3.3-6.1-4.3-7.7-1-1.7-4.6-7.8-8.1-13.8-3.4-5.9-6.5-10.7-6.7-10.7s-.4 29.5-.4 65.5M240 459v11h114v-22H240z"/></svg>