<?xml version="1.0" encoding="UTF-8" standalone="no" ?>
<!DOCTYPE svg PUBLIC "-//W3C//DTD SVG 1.1//EN" "http://www.w3.org/Graphics/SVG/1.1/DTD/svg11.dtd">
<svg xmlns="http://www.w3.org/2000/svg" xmlns:xlink="http://www.w3.org/1999/xlink" version="1.1" width="1080" height="1080" viewBox="0 0 1080 1080" xml:space="preserve">
<desc>Created with Fabric.js 5.2.4</desc>
<defs>
</defs>
<rect x="0" y="0" width="100%" height="100%" fill="transparent"></rect>
<g transform="matrix(1 0 0 1 540 540)" id="04608bd7-93b8-4036-a143-f37dd4e8997b"  >
<rect style="stroke: none; stroke-width: 1; stroke-dasharray: none; stroke-linecap: butt; stroke-dashoffset: 0; stroke-linejoin: miter; stroke-miterlimit: 4; fill: rgb(255,255,255); fill-rule: nonzero; opacity: 1; visibility: hidden;" vector-effect="non-scaling-stroke"  x="-540" y="-540" rx="0" ry="0" width="1080" height="1080" />
</g>
<g transform="matrix(1 0 0 1 540 540)" id="cce6d238-9d50-4bb8-8cc3-d338cf23857d"  >
</g>
<g transform="matrix(6.2 0 0 6.2 539.89 543.02)"  >
<path style="stroke: rgb(0,0,0); stroke-opacity: 0.98; stroke-width: 12; stroke-dasharray: none; stroke-linecap: butt; stroke-dashoffset: 0; stroke-linejoin: miter; stroke-miterlimit: 4; fill: rgb(0,0,0); fill-rule: nonzero; opacity: 1;" vector-effect="non-scaling-stroke"  transform=" translate(-50, -50)" d="M 50 92.875 C 26.358 92.875 7.125 73.642 7.125 50 C 7.125 26.358000000000004 26.358 7.125 50 7.125 C 73.642 7.125 92.875 26.358 92.875 50 C 92.875 73.642 73.642 92.875 50 92.875 z M 50 9.125 C 27.461 9.125 9.125 27.461 9.125 50 C 9.125 72.538 27.461 90.875 50 90.875 C 72.538 90.875 90.875 72.538 90.875 50 C 90.875 27.461 72.538 9.125 50 9.125 z" stroke-linecap="round" />
</g>
<g transform="matrix(1 0 0 1 583.94 504.2)"  >
<path style="stroke: rgb(0,0,0); stroke-width: 1; stroke-dasharray: none; stroke-linecap: butt; stroke-dashoffset: 0; stroke-linejoin: miter; stroke-miterlimit: 4; fill: rgb(0,0,0); fill-rule: nonzero; opacity: 1;" vector-effect="non-scaling-stroke"  transform=" translate(-425.42, -348.15)" d="M 358.9 155.4 C 358.7 155.6 355.7 156.1 352.2 156.4 C 341.8 157.5 323.3 161.5 314 164.70000000000002 C 311.5 165.50000000000003 309.1 166.3 308.5 166.4 C 307.4 166.70000000000002 306 167.20000000000002 297.5 170.5 C 280.9 176.9 262.8 186.8 248.3 197.4 L 240 203.4 L 240 428.1 L 250.8 427.8 L 261.5 427.5 L 262 321.3 L 262.5 215.20000000000002 L 265 213.20000000000002 C 275.1 205.50000000000003 299.3 193.60000000000002 317.5 187.50000000000003 C 351 176.30000000000004 393.3 174.40000000000003 428.6 182.60000000000002 C 487.8 196.3 539.5 237.20000000000002 566.9000000000001 292 C 570.1000000000001 298.3 572.9000000000001 304.4 573.3000000000001 305.5 C 573.6 306.6 574.9000000000001 310 576.0000000000001 313 C 579.8000000000001 323 584.0000000000001 339.3 586.1000000000001 352 C 588.8000000000002 368.4 589.0000000000001 396.4 586.5000000000001 413 C 582.0000000000001 443.4 570.7000000000002 473.3 554.3000000000001 497.7 L 548.0000000000001 507.3 L 548.2000000000002 524.3 L 548.5000000000001 541.4 L 552.2000000000002 537.4 C 571.3000000000002 517.1999999999999 589.7000000000002 485.9 599.4000000000002 457 C 603.8000000000002 444.1 605.2000000000002 438.2 608.6000000000003 420.5 C 610.7000000000003 409.8 611.6000000000003 372.7 610.1000000000003 359.1 C 602.6000000000003 290.20000000000005 563.8000000000003 228.00000000000003 505.0000000000002 190.60000000000002 C 476.0000000000002 172.10000000000002 446.5000000000002 161.40000000000003 411.60000000000025 156.50000000000003 C 401.80000000000024 155.20000000000002 360.10000000000025 154.30000000000004 358.90000000000026 155.40000000000003" stroke-linecap="round" />
</g>
<g transform="matrix(1 0 0 1 496.57 576.23)"  >
<path style="stroke: rgb(0,0,0); stroke-width: 1; stroke-dasharray: none; stroke-linecap: butt; stroke-dashoffset: 0; stroke-linejoin: miter; stroke-miterlimit: 4; fill: rgb(0,0,0); fill-rule: nonzero; opacity: 1;" vector-effect="non-scaling-stroke"  transform=" translate(-338.06, -420.19)" d="M 208.3 233.7 C 161.20000000000002 287.5 142.4 359.5 156.9 431.5 C 161.9 456.7 175.1 488 190.2 510.5 C 198.39999999999998 522.7 198.6 523 208.6 534.4 C 245.5 576.6 293.8 603 349 611 C 366.1 613.5 395.4 613.7 412 611.4 C 450.2 606.1999999999999 487.8 591.1 516.8 569.4 L 524 563.9 L 523.8 431.2 L 523.5 298.5 L 511 298.2 L 498.4 297.9 L 494.9 304.2 C 492.9 307.7 488.7 315 485.5 320.5 C 475.2 338.1 457.9 368.3 455.3 373.2 C 451.1 381 450.90000000000003 380.9 445.3 371.2 C 442.6 366.4 436.1 355.3 431 346.5 C 425.9 337.7 420.7 328.7 419.5 326.5 C 418.2 324.3 414 317.1 410.2 310.5 L 403.2 298.5 L 391.09999999999997 298.2 C 384.4 298.09999999999997 378.99999999999994 298.2 378.99999999999994 298.5 C 378.99999999999994 299 398.79999999999995 333.8 411.99999999999994 356.5 C 414.8999999999999 361.4 424.19999999999993 377.6 432.79999999999995 392.5 C 450.59999999999997 423.4 450.29999999999995 423 450.99999999999994 423 C 451.49999999999994 423 455.3999999999999 416.3 472.8999999999999 385.5 C 478.2999999999999 376.1 484.8999999999999 364.7 487.5999999999999 360 C 490.3999999999999 355.3 494.19999999999993 348.8 495.9999999999999 345.5 C 497.79999999999984 342.2 499.89999999999986 338.6 500.5999999999999 337.5 C 501.7999999999999 335.8 501.9999999999999 352.3 501.7999999999999 444 L 501.4999999999999 552.5 L 494.5999999999999 557.1 C 471.8999999999999 572.3000000000001 441.4999999999999 583.8000000000001 411.4999999999999 588.5 C 396.6999999999999 590.9 367.5999999999999 590.9 352.4999999999999 588.6 C 282.5999999999999 577.9 225.2999999999999 535.7 194.8999999999999 472.5 C 181.4999999999999 444.8 174.9999999999999 415.7 174.9999999999999 384 C 174.9999999999999 343.5 185.7999999999999 306.7 207.9999999999999 271.9 L 214.9999999999999 261 L 215.09999999999988 244.4 C 215.09999999999988 235.3 214.9999999999999 227.6 214.69999999999987 227.4 C 214.4999999999999 227.1 211.59999999999988 230 208.29999999999987 233.70000000000002" stroke-linecap="round" />
</g>
<g transform="matrix(1 0 0 1 478.51 560.54)"  >
<path style="stroke: none; stroke-width: 1; stroke-dasharray: none; stroke-linecap: butt; stroke-dashoffset: 0; stroke-linejoin: miter; stroke-miterlimit: 4; fill: rgb(0,0,0); fill-opacity: 0.99; fill-rule: nonzero; opacity: 1;" vector-effect="non-scaling-stroke"  transform=" translate(-320, -404.5)" d="M 378 404.5 L 378 470 L 400 470 L 400 375.9 L 397.5 371.2 C 396.1 368.59999999999997 394.2 365.09999999999997 393.2 363.5 C 392.2 361.8 388.59999999999997 355.7 385.09999999999997 349.7 C 381.7 343.8 378.59999999999997 339 378.4 339 C 378.2 339 378 368.5 378 404.5 M 240 459 L 240 470 L 354 470 L 354 448 L 240 448 z" stroke-linecap="round" />
</g>
</svg>
